<?xml version="1.0" encoding="UTF-8" standalone="no"?>
<svg
   xmlns:osb="http://www.openswatchbook.org/uri/2009/osb"
   xmlns:dc="http://purl.org/dc/elements/1.1/"
   xmlns:cc="http://creativecommons.org/ns#"
   xmlns:rdf="http://www.w3.org/1999/02/22-rdf-syntax-ns#"
   xmlns:svg="http://www.w3.org/2000/svg"
   xmlns="http://www.w3.org/2000/svg"
   xmlns:xlink="http://www.w3.org/1999/xlink"
   xmlns:sodipodi="http://sodipodi.sourceforge.net/DTD/sodipodi-0.dtd"
   xmlns:inkscape="http://www.inkscape.org/namespaces/inkscape"
   width="55.810219"
   stroke-miterlimit="10"
   font-weight="normal"
   height="50.96373"
   font-style="normal"
   font-size="12"
   id="svg2"
   version="1.1"
   inkscape:version="1.0.1 (3bc2e813f5, 2020-09-07, custom)"
   sodipodi:docname="attention.svg"
   style="font-style:normal;font-weight:normal;font-size:12px;font-family:Dialog;color-interpolation:auto;fill:#000000;fill-opacity:1;stroke:#000000;stroke-width:1;stroke-linecap:square;stroke-linejoin:miter;stroke-miterlimit:10;stroke-dasharray:none;stroke-dashoffset:0;stroke-opacity:1;color-rendering:auto;image-rendering:auto;shape-rendering:auto;text-rendering:auto"
   inkscape:export-filename="/home/marcia/Dropbox/Software Architecture Adaptation and Evolution/images/Instance migration 2.png"
   inkscape:export-xdpi="300"
   inkscape:export-ydpi="300">
  <metadata
     id="metadata86">
    <rdf:RDF>
      <cc:Work
         rdf:about="">
        <dc:format>image/svg+xml</dc:format>
        <dc:type
           rdf:resource="http://purl.org/dc/dcmitype/StillImage" />
        <dc:title />
      </cc:Work>
    </rdf:RDF>
  </metadata>
  <sodipodi:namedview
     pagecolor="#ffffff"
     bordercolor="#666666"
     borderopacity="1"
     objecttolerance="10"
     gridtolerance="10"
     guidetolerance="10"
     inkscape:pageopacity="0"
     inkscape:pageshadow="2"
     inkscape:window-width="1920"
     inkscape:window-height="979"
     id="namedview84"
     showgrid="true"
     inkscape:zoom="1.0248844"
     inkscape:cx="-358.48461"
     inkscape:cy="-18.213129"
     inkscape:window-x="0"
     inkscape:window-y="0"
     inkscape:window-maximized="1"
     inkscape:current-layer="svg2"
     fit-margin-top="0"
     fit-margin-left="0"
     fit-margin-right="0"
     fit-margin-bottom="0"
     inkscape:document-rotation="0">
    <inkscape:grid
       type="xygrid"
       id="grid3096"
       empspacing="5"
       visible="true"
       enabled="true"
       snapvisiblegridlinesonly="true"
       originx="-265.98833"
       originy="-18.454648" />
  </sodipodi:namedview>
  <!--Generated by ySVG-->
  <defs
     id="genericDefs">
    <linearGradient
       id="linearGradient6474"
       osb:paint="gradient">
      <stop
         style="stop-color:#000000;stop-opacity:1;"
         offset="0"
         id="stop6476" />
      <stop
         style="stop-color:#000000;stop-opacity:0;"
         offset="1"
         id="stop6478" />
    </linearGradient>
    <linearGradient
       inkscape:collect="always"
       id="linearGradient6466">
      <stop
         style="stop-color:#0c0a0c;stop-opacity:1;"
         offset="0"
         id="stop6468" />
      <stop
         style="stop-color:#0c0a0c;stop-opacity:0;"
         offset="1"
         id="stop6470" />
    </linearGradient>
    <linearGradient
       id="linearGradient6322"
       osb:paint="solid">
      <stop
         style="stop-color:#000000;stop-opacity:1;"
         offset="0"
         id="stop6324" />
    </linearGradient>
    <defs
       id="defs1">
      <clipPath
         id="clipPath1"
         clipPathUnits="userSpaceOnUse">
        <path
           id="path9"
           d="M 0,0 414,0 414,178 0,178 0,0 Z"
           inkscape:connector-curvature="0" />
      </clipPath>
      <clipPath
         id="clipPath2"
         clipPathUnits="userSpaceOnUse">
        <path
           id="path12"
           d="m -543,-360 414,0 0,178 -414,0 0,-178 z"
           inkscape:connector-curvature="0" />
      </clipPath>
    </defs>
    <clipPath
       id="clipPath2-3"
       clipPathUnits="userSpaceOnUse">
      <path
         inkscape:connector-curvature="0"
         id="path12-3"
         d="m -543,-360 414,0 0,178 -414,0 0,-178 z" />
    </clipPath>
    <clipPath
       id="clipPath3826"
       clipPathUnits="userSpaceOnUse">
      <path
         inkscape:connector-curvature="0"
         id="path3828"
         d="m -543,-360 414,0 0,178 -414,0 0,-178 z" />
    </clipPath>
    <clipPath
       id="clipPath2-4"
       clipPathUnits="userSpaceOnUse">
      <path
         inkscape:connector-curvature="0"
         id="path12-7"
         d="m -543,-360 414,0 0,178 -414,0 0,-178 z" />
    </clipPath>
    <linearGradient
       inkscape:collect="always"
       xlink:href="#linearGradient6466"
       id="linearGradient6472"
       x1="12.585248"
       y1="112.61991"
       x2="27.75094"
       y2="112.61991"
       gradientUnits="userSpaceOnUse" />
    <linearGradient
       inkscape:collect="always"
       xlink:href="#linearGradient6466"
       id="linearGradient6496"
       gradientUnits="userSpaceOnUse"
       x1="12.585248"
       y1="112.61991"
       x2="27.75094"
       y2="112.61991" />
    <linearGradient
       inkscape:collect="always"
       xlink:href="#linearGradient6466"
       id="linearGradient6498"
       gradientUnits="userSpaceOnUse"
       x1="12.585248"
       y1="112.61991"
       x2="27.75094"
       y2="112.61991" />
    <clipPath
       id="clipPath2-38"
       clipPathUnits="userSpaceOnUse">
      <path
         inkscape:connector-curvature="0"
         id="path12-6"
         d="m -543,-360 414,0 0,178 -414,0 0,-178 z" />
    </clipPath>
    <clipPath
       id="clipPath6727"
       clipPathUnits="userSpaceOnUse">
      <path
         inkscape:connector-curvature="0"
         id="path6729"
         d="m -543,-360 414,0 0,178 -414,0 0,-178 z" />
    </clipPath>
    <clipPath
       id="clipPath2-2"
       clipPathUnits="userSpaceOnUse">
      <path
         inkscape:connector-curvature="0"
         id="path12-0"
         d="m -543,-360 414,0 0,178 -414,0 0,-178 z" />
    </clipPath>
    <clipPath
       id="clipPath2-8"
       clipPathUnits="userSpaceOnUse">
      <path
         inkscape:connector-curvature="0"
         id="path12-62"
         d="m -543,-360 414,0 0,178 -414,0 0,-178 z" />
    </clipPath>
    <clipPath
       id="clipPath6789"
       clipPathUnits="userSpaceOnUse">
      <path
         inkscape:connector-curvature="0"
         id="path6791"
         d="m -543,-360 414,0 0,178 -414,0 0,-178 z" />
    </clipPath>
    <clipPath
       id="clipPath2-5"
       clipPathUnits="userSpaceOnUse">
      <path
         inkscape:connector-curvature="0"
         id="path12-9"
         d="m -543,-360 414,0 0,178 -414,0 0,-178 z" />
    </clipPath>
    <clipPath
       id="clipPath2-4-9"
       clipPathUnits="userSpaceOnUse">
      <path
         inkscape:connector-curvature="0"
         id="path12-7-7"
         d="m -543,-360 414,0 0,178 -414,0 0,-178 z" />
    </clipPath>
    <clipPath
       id="clipPath2-3-7"
       clipPathUnits="userSpaceOnUse">
      <path
         inkscape:connector-curvature="0"
         id="path12-3-5"
         d="m -543,-360 414,0 0,178 -414,0 0,-178 z" />
    </clipPath>
    <clipPath
       id="clipPath3075"
       clipPathUnits="userSpaceOnUse">
      <path
         inkscape:connector-curvature="0"
         id="path3077"
         d="m -543,-360 414,0 0,178 -414,0 0,-178 z" />
    </clipPath>
    <clipPath
       id="clipPath2-44"
       clipPathUnits="userSpaceOnUse">
      <path
         id="path12-65"
         d="m -543,-360 414,0 0,178 -414,0 0,-178 z"
         inkscape:connector-curvature="0" />
    </clipPath>
    <clipPath
       id="clipPath3081"
       clipPathUnits="userSpaceOnUse">
      <path
         id="path3083"
         d="m -543,-360 414,0 0,178 -414,0 0,-178 z"
         inkscape:connector-curvature="0" />
    </clipPath>
    <clipPath
       id="clipPath3085"
       clipPathUnits="userSpaceOnUse">
      <path
         id="path3087"
         d="m -543,-360 414,0 0,178 -414,0 0,-178 z"
         inkscape:connector-curvature="0" />
    </clipPath>
    <clipPath
       id="clipPath3089"
       clipPathUnits="userSpaceOnUse">
      <path
         id="path3091"
         d="m -543,-360 414,0 0,178 -414,0 0,-178 z"
         inkscape:connector-curvature="0" />
    </clipPath>
    <clipPath
       id="clipPath3093"
       clipPathUnits="userSpaceOnUse">
      <path
         id="path3095"
         d="m -543,-360 414,0 0,178 -414,0 0,-178 z"
         inkscape:connector-curvature="0" />
    </clipPath>
    <clipPath
       id="clipPath3097"
       clipPathUnits="userSpaceOnUse">
      <path
         id="path3099"
         d="m -543,-360 414,0 0,178 -414,0 0,-178 z"
         inkscape:connector-curvature="0" />
    </clipPath>
    <clipPath
       id="clipPath3101"
       clipPathUnits="userSpaceOnUse">
      <path
         id="path3103"
         d="m -543,-360 414,0 0,178 -414,0 0,-178 z"
         inkscape:connector-curvature="0" />
    </clipPath>
    <clipPath
       id="clipPath3105"
       clipPathUnits="userSpaceOnUse">
      <path
         id="path3107"
         d="m -543,-360 414,0 0,178 -414,0 0,-178 z"
         inkscape:connector-curvature="0" />
    </clipPath>
    <clipPath
       id="clipPath3109"
       clipPathUnits="userSpaceOnUse">
      <path
         id="path3111"
         d="m -543,-360 414,0 0,178 -414,0 0,-178 z"
         inkscape:connector-curvature="0" />
    </clipPath>
    <clipPath
       id="clipPath3113"
       clipPathUnits="userSpaceOnUse">
      <path
         id="path3115"
         d="m -543,-360 414,0 0,178 -414,0 0,-178 z"
         inkscape:connector-curvature="0" />
    </clipPath>
    <clipPath
       id="clipPath3117"
       clipPathUnits="userSpaceOnUse">
      <path
         id="path3119"
         d="m -543,-360 414,0 0,178 -414,0 0,-178 z"
         inkscape:connector-curvature="0" />
    </clipPath>
    <clipPath
       id="clipPath3121"
       clipPathUnits="userSpaceOnUse">
      <path
         id="path3123"
         d="m -543,-360 414,0 0,178 -414,0 0,-178 z"
         inkscape:connector-curvature="0" />
    </clipPath>
    <clipPath
       id="clipPath3125"
       clipPathUnits="userSpaceOnUse">
      <path
         id="path3127"
         d="m -543,-360 414,0 0,178 -414,0 0,-178 z"
         inkscape:connector-curvature="0" />
    </clipPath>
    <clipPath
       id="clipPath3129"
       clipPathUnits="userSpaceOnUse">
      <path
         id="path3131"
         d="m -543,-360 414,0 0,178 -414,0 0,-178 z"
         inkscape:connector-curvature="0" />
    </clipPath>
    <clipPath
       id="clipPath3133"
       clipPathUnits="userSpaceOnUse">
      <path
         id="path3135"
         d="m -543,-360 414,0 0,178 -414,0 0,-178 z"
         inkscape:connector-curvature="0" />
    </clipPath>
    <clipPath
       id="clipPath3137"
       clipPathUnits="userSpaceOnUse">
      <path
         id="path3139"
         d="m -543,-360 414,0 0,178 -414,0 0,-178 z"
         inkscape:connector-curvature="0" />
    </clipPath>
    <clipPath
       id="clipPath3141"
       clipPathUnits="userSpaceOnUse">
      <path
         id="path3143"
         d="m -543,-360 414,0 0,178 -414,0 0,-178 z"
         inkscape:connector-curvature="0" />
    </clipPath>
    <clipPath
       id="clipPath3145"
       clipPathUnits="userSpaceOnUse">
      <path
         id="path3147"
         d="m -543,-360 414,0 0,178 -414,0 0,-178 z"
         inkscape:connector-curvature="0" />
    </clipPath>
    <clipPath
       id="clipPath3149"
       clipPathUnits="userSpaceOnUse">
      <path
         id="path3151"
         d="m -543,-360 414,0 0,178 -414,0 0,-178 z"
         inkscape:connector-curvature="0" />
    </clipPath>
    <clipPath
       id="clipPath3153"
       clipPathUnits="userSpaceOnUse">
      <path
         id="path3155"
         d="m -543,-360 414,0 0,178 -414,0 0,-178 z"
         inkscape:connector-curvature="0" />
    </clipPath>
    <clipPath
       id="clipPath3157"
       clipPathUnits="userSpaceOnUse">
      <path
         id="path3159"
         d="m -543,-360 414,0 0,178 -414,0 0,-178 z"
         inkscape:connector-curvature="0" />
    </clipPath>
    <clipPath
       id="clipPath3161"
       clipPathUnits="userSpaceOnUse">
      <path
         id="path3163"
         d="m -543,-360 414,0 0,178 -414,0 0,-178 z"
         inkscape:connector-curvature="0" />
    </clipPath>
  </defs>
  <g
     id="g3116"
     transform="matrix(0.40637089,0,0,0.40637089,-125.02174,18.079742)">
    <g
       id="g1615"
       transform="translate(298.17258,-54.003876)">
      <path
         style="fill:#ffffff;stroke:#000000;stroke-width:2"
         sodipodi:nodetypes="ccccccccccc"
         id="path1616"
         d="m 12.473,121.082 c -0.913967,1.76129 -1.9912,3.408 -1.9913,5.341 l 0.009,0.80788 c 0,4.172 3.265872,6.69412 7.020572,6.69412 l 121.319698,0 c 3.755,0 6.98886,-3.12652 6.98886,-7.29852 L 145.78,125.815 c 0,-1.933 -0.95029,-3.61152 -1.991,-5.341 L 83.7056,12.6938 C 81.051,9.74423 76.7473,9.74423 74.0923,12.6942 L 12.473,121.082 Z"
         inkscape:connector-curvature="0" />
      <path
         style="fill:#ffcc00;stroke:#000000;stroke-width:4.85160017;stroke-linecap:round;stroke-linejoin:round"
         id="path1617"
         d="m 78.703,16.2915 -63.4233,111.8365 61.187,0 2.8521,0 60.5072,0 -60.3105,-111.8365 -0.8125,0 z"
         inkscape:connector-curvature="0" />
    </g>
    <g
       id="g1618"
       transform="translate(298.17258,-54.003876)">
      <path
         style="fill:#000000;stroke:none"
         sodipodi:nodetypes="czczccczz"
         id="path1619"
         d="m 84.366054,45.1579 c 0.92385,0.9815 1.103746,1.21235 1.565646,3.0022 0.4619,1.78985 1.474117,5.308987 0.359892,9.302446 -0.462,6.9284 -0.161742,13.505426 -0.435017,20.516837 C 85.583663,84.98149 87.3174,93.426 79.2341,95.0426 77.1556,95.2736 75.0771,93.8879 74.2688,91.9248 72.8831,77.837 71.4975,64.442 70.1117,50.7006 c 1.1547,-3.5797 4.0415,-7.0439 7.5058,-7.5058 3.4643,-0.4619 5.824704,0.9816 6.748554,1.9631 z"
         inkscape:connector-curvature="0" />
      <path
         style="fill:#000000;stroke:none"
         id="path1620"
         d="m 83.1603,103.357 c 3.2333,1.963 3.8106,5.543 3.8106,9.122 -1.3857,3.465 -2.8868,7.506 -7.3903,7.506 -2.7714,-0.115 -5.4273,-0.693 -7.2749,-2.771 -1.1547,-4.157 -3.8106,-8.43 0,-11.894 2.8869,-4.042 6.9284,-3.002 10.8546,-1.963 z"
         inkscape:connector-curvature="0" />
    </g>
  </g>
  <g
     transform="matrix(0.40637089,0,0,0.40637089,-125.02174,18.079742)"
     id="g3448">
    <g
       transform="translate(298.17258,-54.003876)"
       id="g3450">
      <path
         inkscape:connector-curvature="0"
         d="m 12.473,121.082 c -0.913967,1.76129 -1.9912,3.408 -1.9913,5.341 l 0.009,0.80788 c 0,4.172 3.265872,6.69412 7.020572,6.69412 l 121.319698,0 c 3.755,0 6.98886,-3.12652 6.98886,-7.29852 L 145.78,125.815 c 0,-1.933 -0.95029,-3.61152 -1.991,-5.341 L 83.7056,12.6938 C 81.051,9.74423 76.7473,9.74423 74.0923,12.6942 L 12.473,121.082 Z"
         id="path3452"
         sodipodi:nodetypes="ccccccccccc"
         style="fill:#ffffff;stroke:#000000;stroke-width:2" />
      <path
         inkscape:connector-curvature="0"
         d="m 78.703,16.2915 -63.4233,111.8365 61.187,0 2.8521,0 60.5072,0 -60.3105,-111.8365 -0.8125,0 z"
         id="path3454"
         style="fill:#ffcc00;stroke:#000000;stroke-width:4.85160017;stroke-linecap:round;stroke-linejoin:round" />
    </g>
    <g
       transform="translate(298.17258,-54.003876)"
       id="g3456">
      <path
         inkscape:connector-curvature="0"
         d="m 84.366054,45.1579 c 0.92385,0.9815 1.103746,1.21235 1.565646,3.0022 0.4619,1.78985 1.474117,5.308987 0.359892,9.302446 -0.462,6.9284 -0.161742,13.505426 -0.435017,20.516837 C 85.583663,84.98149 87.3174,93.426 79.2341,95.0426 77.1556,95.2736 75.0771,93.8879 74.2688,91.9248 72.8831,77.837 71.4975,64.442 70.1117,50.7006 c 1.1547,-3.5797 4.0415,-7.0439 7.5058,-7.5058 3.4643,-0.4619 5.824704,0.9816 6.748554,1.9631 z"
         id="path3458"
         sodipodi:nodetypes="czczccczz"
         style="fill:#000000;stroke:none" />
      <path
         inkscape:connector-curvature="0"
         d="m 83.1603,103.357 c 3.2333,1.963 3.8106,5.543 3.8106,9.122 -1.3857,3.465 -2.8868,7.506 -7.3903,7.506 -2.7714,-0.115 -5.4273,-0.693 -7.2749,-2.771 -1.1547,-4.157 -3.8106,-8.43 0,-11.894 2.8869,-4.042 6.9284,-3.002 10.8546,-1.963 z"
         id="path3460"
         style="fill:#000000;stroke:none" />
    </g>
  </g>
</svg>
