<?xml version="1.0" encoding="UTF-8" standalone="no"?>
<svg
   xmlns:osb="http://www.openswatchbook.org/uri/2009/osb"
   xmlns:dc="http://purl.org/dc/elements/1.1/"
   xmlns:cc="http://creativecommons.org/ns#"
   xmlns:rdf="http://www.w3.org/1999/02/22-rdf-syntax-ns#"
   xmlns:svg="http://www.w3.org/2000/svg"
   xmlns="http://www.w3.org/2000/svg"
   xmlns:xlink="http://www.w3.org/1999/xlink"
   xmlns:sodipodi="http://sodipodi.sourceforge.net/DTD/sodipodi-0.dtd"
   xmlns:inkscape="http://www.inkscape.org/namespaces/inkscape"
   width="61.432335"
   stroke-miterlimit="10"
   font-weight="normal"
   height="59.83271"
   font-style="normal"
   font-size="12"
   id="svg2"
   version="1.1"
   inkscape:version="0.91 r13725"
   sodipodi:docname="check.svg"
   style="font-style:normal;font-weight:normal;font-size:12px;font-family:Dialog;color-interpolation:auto;fill:#000000;fill-opacity:1;stroke:#000000;stroke-width:1;stroke-linecap:square;stroke-linejoin:miter;stroke-miterlimit:10;stroke-dasharray:none;stroke-dashoffset:0;stroke-opacity:1;color-rendering:auto;image-rendering:auto;shape-rendering:auto;text-rendering:auto"
   inkscape:export-filename="/home/marcia/Dropbox/Software Architecture Adaptation and Evolution/images/Instance migration 2.png"
   inkscape:export-xdpi="300"
   inkscape:export-ydpi="300">
  <metadata
     id="metadata86">
    <rdf:RDF>
      <cc:Work
         rdf:about="">
        <dc:format>image/svg+xml</dc:format>
        <dc:type
           rdf:resource="http://purl.org/dc/dcmitype/StillImage" />
        <dc:title></dc:title>
      </cc:Work>
    </rdf:RDF>
  </metadata>
  <sodipodi:namedview
     pagecolor="#ffffff"
     bordercolor="#666666"
     borderopacity="1"
     objecttolerance="10"
     gridtolerance="10"
     guidetolerance="10"
     inkscape:pageopacity="0"
     inkscape:pageshadow="2"
     inkscape:window-width="1920"
     inkscape:window-height="1008"
     id="namedview84"
     showgrid="false"
     inkscape:zoom="1.5952602"
     inkscape:cx="-328.34579"
     inkscape:cy="-1.5695842"
     inkscape:window-x="0"
     inkscape:window-y="0"
     inkscape:window-maximized="1"
     inkscape:current-layer="svg2"
     fit-margin-top="0"
     fit-margin-left="0"
     fit-margin-right="0"
     fit-margin-bottom="0" />
  <!--Generated by ySVG-->
  <defs
     id="genericDefs">
    <marker
       inkscape:stockid="Arrow2Send"
       orient="auto"
       refY="0"
       refX="0"
       id="Arrow2Send"
       style="overflow:visible">
      <path
         id="path4035"
         style="font-size:12px;fill-rule:evenodd;stroke-width:0.625;stroke-linejoin:round"
         d="M 8.7185878,4.0337352 -2.2072895,0.01601326 8.7185884,-4.0017078 c -1.7454984,2.3720609 -1.7354408,5.6174519 -6e-7,8.035443 z"
         transform="matrix(-0.3,0,0,-0.3,0.69,0)"
         inkscape:connector-curvature="0" />
    </marker>
    <marker
       inkscape:stockid="SquareS"
       orient="auto"
       refY="0"
       refX="0"
       id="SquareS"
       style="overflow:visible">
      <path
         id="path4079"
         d="M -5,-5 -5,5 5,5 5,-5 -5,-5 Z"
         style="fill-rule:evenodd;stroke:#000000;stroke-width:1pt;marker-start:none"
         transform="scale(0.2,0.2)"
         inkscape:connector-curvature="0" />
    </marker>
    <marker
       inkscape:stockid="DiamondL"
       orient="auto"
       refY="0"
       refX="0"
       id="DiamondL"
       style="overflow:visible">
      <path
         id="path4082"
         d="M 0,-7.0710768 -7.0710894,0 0,7.0710589 7.0710462,0 0,-7.0710768 Z"
         style="fill-rule:evenodd;stroke:#000000;stroke-width:1pt;marker-start:none"
         transform="scale(0.8,0.8)"
         inkscape:connector-curvature="0" />
    </marker>
    <marker
       inkscape:stockid="Arrow2Lend"
       orient="auto"
       refY="0"
       refX="0"
       id="Arrow2Lend"
       style="overflow:visible">
      <path
         id="path4023"
         style="font-size:12px;fill-rule:evenodd;stroke-width:0.625;stroke-linejoin:round"
         d="M 8.7185878,4.0337352 -2.2072895,0.01601326 8.7185884,-4.0017078 c -1.7454984,2.3720609 -1.7354408,5.6174519 -6e-7,8.035443 z"
         transform="matrix(-1.1,0,0,-1.1,-1.1,0)"
         inkscape:connector-curvature="0" />
    </marker>
    <marker
       inkscape:stockid="Arrow1Lstart"
       orient="auto"
       refY="0"
       refX="0"
       id="Arrow1Lstart"
       style="overflow:visible">
      <path
         id="path4002"
         d="M 0,0 5,-5 -12.5,0 5,5 0,0 Z"
         style="fill-rule:evenodd;stroke:#000000;stroke-width:1pt;marker-start:none"
         transform="matrix(0.8,0,0,0.8,10,0)"
         inkscape:connector-curvature="0" />
    </marker>
    <linearGradient
       id="linearGradient6474"
       osb:paint="gradient">
      <stop
         style="stop-color:#000000;stop-opacity:1;"
         offset="0"
         id="stop6476" />
      <stop
         style="stop-color:#000000;stop-opacity:0;"
         offset="1"
         id="stop6478" />
    </linearGradient>
    <linearGradient
       inkscape:collect="always"
       id="linearGradient6466">
      <stop
         style="stop-color:#0c0a0c;stop-opacity:1;"
         offset="0"
         id="stop6468" />
      <stop
         style="stop-color:#0c0a0c;stop-opacity:0;"
         offset="1"
         id="stop6470" />
    </linearGradient>
    <linearGradient
       id="linearGradient6322"
       osb:paint="solid">
      <stop
         style="stop-color:#000000;stop-opacity:1;"
         offset="0"
         id="stop6324" />
    </linearGradient>
    <defs
       id="defs1">
      <clipPath
         id="clipPath1"
         clipPathUnits="userSpaceOnUse">
        <path
           id="path9"
           d="M 0,0 414,0 414,178 0,178 0,0 Z"
           inkscape:connector-curvature="0" />
      </clipPath>
      <clipPath
         id="clipPath2"
         clipPathUnits="userSpaceOnUse">
        <path
           id="path12"
           d="m -543,-360 414,0 0,178 -414,0 0,-178 z"
           inkscape:connector-curvature="0" />
      </clipPath>
    </defs>
    <clipPath
       id="clipPath2-3"
       clipPathUnits="userSpaceOnUse">
      <path
         inkscape:connector-curvature="0"
         id="path12-3"
         d="m -543,-360 414,0 0,178 -414,0 0,-178 z" />
    </clipPath>
    <clipPath
       id="clipPath3826"
       clipPathUnits="userSpaceOnUse">
      <path
         inkscape:connector-curvature="0"
         id="path3828"
         d="m -543,-360 414,0 0,178 -414,0 0,-178 z" />
    </clipPath>
    <clipPath
       id="clipPath2-4"
       clipPathUnits="userSpaceOnUse">
      <path
         inkscape:connector-curvature="0"
         id="path12-7"
         d="m -543,-360 414,0 0,178 -414,0 0,-178 z" />
    </clipPath>
    <linearGradient
       inkscape:collect="always"
       xlink:href="#linearGradient6466"
       id="linearGradient6472"
       x1="12.585248"
       y1="112.61991"
       x2="27.75094"
       y2="112.61991"
       gradientUnits="userSpaceOnUse" />
    <linearGradient
       inkscape:collect="always"
       xlink:href="#linearGradient6466"
       id="linearGradient6496"
       gradientUnits="userSpaceOnUse"
       x1="12.585248"
       y1="112.61991"
       x2="27.75094"
       y2="112.61991" />
    <linearGradient
       inkscape:collect="always"
       xlink:href="#linearGradient6466"
       id="linearGradient6498"
       gradientUnits="userSpaceOnUse"
       x1="12.585248"
       y1="112.61991"
       x2="27.75094"
       y2="112.61991" />
    <clipPath
       id="clipPath2-38"
       clipPathUnits="userSpaceOnUse">
      <path
         inkscape:connector-curvature="0"
         id="path12-6"
         d="m -543,-360 414,0 0,178 -414,0 0,-178 z" />
    </clipPath>
    <clipPath
       id="clipPath6727"
       clipPathUnits="userSpaceOnUse">
      <path
         inkscape:connector-curvature="0"
         id="path6729"
         d="m -543,-360 414,0 0,178 -414,0 0,-178 z" />
    </clipPath>
    <clipPath
       id="clipPath2-2"
       clipPathUnits="userSpaceOnUse">
      <path
         inkscape:connector-curvature="0"
         id="path12-0"
         d="m -543,-360 414,0 0,178 -414,0 0,-178 z" />
    </clipPath>
    <clipPath
       id="clipPath2-8"
       clipPathUnits="userSpaceOnUse">
      <path
         inkscape:connector-curvature="0"
         id="path12-62"
         d="m -543,-360 414,0 0,178 -414,0 0,-178 z" />
    </clipPath>
    <clipPath
       id="clipPath6789"
       clipPathUnits="userSpaceOnUse">
      <path
         inkscape:connector-curvature="0"
         id="path6791"
         d="m -543,-360 414,0 0,178 -414,0 0,-178 z" />
    </clipPath>
    <clipPath
       id="clipPath2-5"
       clipPathUnits="userSpaceOnUse">
      <path
         inkscape:connector-curvature="0"
         id="path12-9"
         d="m -543,-360 414,0 0,178 -414,0 0,-178 z" />
    </clipPath>
    <clipPath
       id="clipPath2-4-9"
       clipPathUnits="userSpaceOnUse">
      <path
         inkscape:connector-curvature="0"
         id="path12-7-7"
         d="m -543,-360 414,0 0,178 -414,0 0,-178 z" />
    </clipPath>
    <clipPath
       id="clipPath2-3-7"
       clipPathUnits="userSpaceOnUse">
      <path
         inkscape:connector-curvature="0"
         id="path12-3-5"
         d="m -543,-360 414,0 0,178 -414,0 0,-178 z" />
    </clipPath>
    <clipPath
       id="clipPath3075"
       clipPathUnits="userSpaceOnUse">
      <path
         inkscape:connector-curvature="0"
         id="path3077"
         d="m -543,-360 414,0 0,178 -414,0 0,-178 z" />
    </clipPath>
    <clipPath
       id="clipPath2-44"
       clipPathUnits="userSpaceOnUse">
      <path
         id="path12-65"
         d="m -543,-360 414,0 0,178 -414,0 0,-178 z"
         inkscape:connector-curvature="0" />
    </clipPath>
    <clipPath
       id="clipPath3081"
       clipPathUnits="userSpaceOnUse">
      <path
         id="path3083"
         d="m -543,-360 414,0 0,178 -414,0 0,-178 z"
         inkscape:connector-curvature="0" />
    </clipPath>
    <clipPath
       id="clipPath3085"
       clipPathUnits="userSpaceOnUse">
      <path
         id="path3087"
         d="m -543,-360 414,0 0,178 -414,0 0,-178 z"
         inkscape:connector-curvature="0" />
    </clipPath>
    <clipPath
       id="clipPath3089"
       clipPathUnits="userSpaceOnUse">
      <path
         id="path3091"
         d="m -543,-360 414,0 0,178 -414,0 0,-178 z"
         inkscape:connector-curvature="0" />
    </clipPath>
    <clipPath
       id="clipPath3093"
       clipPathUnits="userSpaceOnUse">
      <path
         id="path3095"
         d="m -543,-360 414,0 0,178 -414,0 0,-178 z"
         inkscape:connector-curvature="0" />
    </clipPath>
    <clipPath
       id="clipPath3097"
       clipPathUnits="userSpaceOnUse">
      <path
         id="path3099"
         d="m -543,-360 414,0 0,178 -414,0 0,-178 z"
         inkscape:connector-curvature="0" />
    </clipPath>
    <clipPath
       id="clipPath3101"
       clipPathUnits="userSpaceOnUse">
      <path
         id="path3103"
         d="m -543,-360 414,0 0,178 -414,0 0,-178 z"
         inkscape:connector-curvature="0" />
    </clipPath>
    <clipPath
       id="clipPath3105"
       clipPathUnits="userSpaceOnUse">
      <path
         id="path3107"
         d="m -543,-360 414,0 0,178 -414,0 0,-178 z"
         inkscape:connector-curvature="0" />
    </clipPath>
    <clipPath
       id="clipPath3109"
       clipPathUnits="userSpaceOnUse">
      <path
         id="path3111"
         d="m -543,-360 414,0 0,178 -414,0 0,-178 z"
         inkscape:connector-curvature="0" />
    </clipPath>
    <clipPath
       id="clipPath3113"
       clipPathUnits="userSpaceOnUse">
      <path
         id="path3115"
         d="m -543,-360 414,0 0,178 -414,0 0,-178 z"
         inkscape:connector-curvature="0" />
    </clipPath>
    <clipPath
       id="clipPath3117"
       clipPathUnits="userSpaceOnUse">
      <path
         id="path3119"
         d="m -543,-360 414,0 0,178 -414,0 0,-178 z"
         inkscape:connector-curvature="0" />
    </clipPath>
    <clipPath
       id="clipPath3121"
       clipPathUnits="userSpaceOnUse">
      <path
         id="path3123"
         d="m -543,-360 414,0 0,178 -414,0 0,-178 z"
         inkscape:connector-curvature="0" />
    </clipPath>
    <clipPath
       id="clipPath3125"
       clipPathUnits="userSpaceOnUse">
      <path
         id="path3127"
         d="m -543,-360 414,0 0,178 -414,0 0,-178 z"
         inkscape:connector-curvature="0" />
    </clipPath>
    <clipPath
       id="clipPath3129"
       clipPathUnits="userSpaceOnUse">
      <path
         id="path3131"
         d="m -543,-360 414,0 0,178 -414,0 0,-178 z"
         inkscape:connector-curvature="0" />
    </clipPath>
    <clipPath
       id="clipPath3133"
       clipPathUnits="userSpaceOnUse">
      <path
         id="path3135"
         d="m -543,-360 414,0 0,178 -414,0 0,-178 z"
         inkscape:connector-curvature="0" />
    </clipPath>
    <clipPath
       id="clipPath3137"
       clipPathUnits="userSpaceOnUse">
      <path
         id="path3139"
         d="m -543,-360 414,0 0,178 -414,0 0,-178 z"
         inkscape:connector-curvature="0" />
    </clipPath>
    <clipPath
       id="clipPath3141"
       clipPathUnits="userSpaceOnUse">
      <path
         id="path3143"
         d="m -543,-360 414,0 0,178 -414,0 0,-178 z"
         inkscape:connector-curvature="0" />
    </clipPath>
    <clipPath
       id="clipPath3145"
       clipPathUnits="userSpaceOnUse">
      <path
         id="path3147"
         d="m -543,-360 414,0 0,178 -414,0 0,-178 z"
         inkscape:connector-curvature="0" />
    </clipPath>
    <clipPath
       id="clipPath3149"
       clipPathUnits="userSpaceOnUse">
      <path
         id="path3151"
         d="m -543,-360 414,0 0,178 -414,0 0,-178 z"
         inkscape:connector-curvature="0" />
    </clipPath>
    <clipPath
       id="clipPath3153"
       clipPathUnits="userSpaceOnUse">
      <path
         id="path3155"
         d="m -543,-360 414,0 0,178 -414,0 0,-178 z"
         inkscape:connector-curvature="0" />
    </clipPath>
    <clipPath
       id="clipPath3157"
       clipPathUnits="userSpaceOnUse">
      <path
         id="path3159"
         d="m -543,-360 414,0 0,178 -414,0 0,-178 z"
         inkscape:connector-curvature="0" />
    </clipPath>
    <clipPath
       id="clipPath3161"
       clipPathUnits="userSpaceOnUse">
      <path
         id="path3163"
         d="m -543,-360 414,0 0,178 -414,0 0,-178 z"
         inkscape:connector-curvature="0" />
    </clipPath>
    <linearGradient
       id="linearGradient51"
       xlink:href="#linearGradient53" />
    <linearGradient
       id="linearGradient53">
      <stop
         id="stop54"
         offset="0"
         style="stop-color:#faff00;stop-opacity:1;" />
      <stop
         id="stop55"
         offset="1"
         style="stop-color:#026d00;stop-opacity:1;" />
    </linearGradient>
    <linearGradient
       gradientUnits="userSpaceOnUse"
       y2="8.2089014"
       x2="426.85291"
       y1="8.2089014"
       x1="3.0107114"
       gradientTransform="matrix(0.14522131,0,0,0.14110907,-15.615686,24.609983)"
       id="linearGradient3015"
       xlink:href="#linearGradient53"
       inkscape:collect="always" />
  </defs>
  <path
     inkscape:connector-curvature="0"
     d="M 1.1346737,35.68489 C 0.16641367,32.934379 16.175144,40.767675 20.445384,39.452928 24.876944,37.073697 54.791764,-0.09013227 60.443074,1.1452547 57.195714,7.8173817 25.807984,53.980496 24.066464,58.550311 20.939244,60.459125 5.7094237,46.10057 1.1346737,35.68489 Z"
     id="path595"
     style="font-size:12px;fill:url(#linearGradient3015);fill-opacity:1;fill-rule:evenodd;stroke:#005900;stroke-width:2.20041823;stroke-linejoin:bevel" />
</svg>
