<?xml version="1.0" encoding="UTF-8" standalone="no"?>
<svg
   xmlns:osb="http://www.openswatchbook.org/uri/2009/osb"
   xmlns:dc="http://purl.org/dc/elements/1.1/"
   xmlns:cc="http://creativecommons.org/ns#"
   xmlns:rdf="http://www.w3.org/1999/02/22-rdf-syntax-ns#"
   xmlns:svg="http://www.w3.org/2000/svg"
   xmlns="http://www.w3.org/2000/svg"
   xmlns:xlink="http://www.w3.org/1999/xlink"
   xmlns:sodipodi="http://sodipodi.sourceforge.net/DTD/sodipodi-0.dtd"
   xmlns:inkscape="http://www.inkscape.org/namespaces/inkscape"
   width="527.54291"
   stroke-miterlimit="10"
   font-weight="normal"
   height="79.058128"
   font-style="normal"
   font-size="12"
   id="svg2"
   version="1.1"
   inkscape:version="0.91 r13725"
   sodipodi:docname="liste_variantes2_color.svg"
   style="font-style:normal;font-weight:normal;font-size:12px;font-family:Dialog;color-interpolation:auto;fill:#000000;fill-opacity:1;stroke:#000000;stroke-width:1;stroke-linecap:square;stroke-linejoin:miter;stroke-miterlimit:10;stroke-dasharray:none;stroke-dashoffset:0;stroke-opacity:1;color-rendering:auto;image-rendering:auto;shape-rendering:auto;text-rendering:auto"
   inkscape:export-filename="/home/marcia/Dropbox/Software Architecture Adaptation and Evolution/images/Instance migration 2.png"
   inkscape:export-xdpi="300"
   inkscape:export-ydpi="300">
  <metadata
     id="metadata86">
    <rdf:RDF>
      <cc:Work
         rdf:about="">
        <dc:format>image/svg+xml</dc:format>
        <dc:type
           rdf:resource="http://purl.org/dc/dcmitype/StillImage" />
        <dc:title></dc:title>
      </cc:Work>
    </rdf:RDF>
  </metadata>
  <sodipodi:namedview
     pagecolor="#ffffff"
     bordercolor="#666666"
     borderopacity="1"
     objecttolerance="10"
     gridtolerance="10"
     guidetolerance="10"
     inkscape:pageopacity="0"
     inkscape:pageshadow="2"
     inkscape:window-width="1920"
     inkscape:window-height="1008"
     id="namedview84"
     showgrid="false"
     inkscape:zoom="1.1280193"
     inkscape:cx="207.36529"
     inkscape:cy="195.68539"
     inkscape:window-x="0"
     inkscape:window-y="0"
     inkscape:window-maximized="1"
     inkscape:current-layer="svg2"
     fit-margin-top="0"
     fit-margin-left="0"
     fit-margin-right="0"
     fit-margin-bottom="0">
    <inkscape:grid
       type="xygrid"
       id="grid3636"
       originx="299.81213"
       originy="1061.5232" />
  </sodipodi:namedview>
  <!--Generated by ySVG-->
  <defs
     id="genericDefs">
    <marker
       inkscape:isstock="true"
       style="overflow:visible"
       id="marker6699"
       refX="0"
       refY="0"
       orient="auto"
       inkscape:stockid="Arrow1Lend">
      <path
         inkscape:connector-curvature="0"
         transform="matrix(-0.8,0,0,-0.8,-10,0)"
         style="fill:#000000;fill-opacity:1;fill-rule:evenodd;stroke:#000000;stroke-width:1pt;stroke-opacity:1"
         d="M 0,0 5,-5 -12.5,0 5,5 0,0 Z"
         id="path6701" />
    </marker>
    <marker
       inkscape:isstock="true"
       style="overflow:visible"
       id="marker6599"
       refX="0"
       refY="0"
       orient="auto"
       inkscape:stockid="DotL">
      <path
         inkscape:connector-curvature="0"
         transform="matrix(0.8,0,0,0.8,5.92,0.8)"
         style="fill:#000000;fill-opacity:1;fill-rule:evenodd;stroke:#000000;stroke-width:1pt;stroke-opacity:1"
         d="m -2.5,-1 c 0,2.76 -2.24,5 -5,5 -2.76,0 -5,-2.24 -5,-5 0,-2.76 2.24,-5 5,-5 2.76,0 5,2.24 5,5 z"
         id="path6601" />
    </marker>
    <marker
       inkscape:isstock="true"
       style="overflow:visible"
       id="marker6257"
       refX="0"
       refY="0"
       orient="auto"
       inkscape:stockid="Arrow1Lend">
      <path
         inkscape:connector-curvature="0"
         transform="matrix(-0.8,0,0,-0.8,-10,0)"
         style="fill:#000000;fill-opacity:1;fill-rule:evenodd;stroke:#000000;stroke-width:1pt;stroke-opacity:1"
         d="M 0,0 5,-5 -12.5,0 5,5 0,0 Z"
         id="path6259" />
    </marker>
    <marker
       inkscape:isstock="true"
       style="overflow:visible"
       id="marker6169"
       refX="0"
       refY="0"
       orient="auto"
       inkscape:stockid="DotL">
      <path
         inkscape:connector-curvature="0"
         transform="matrix(0.8,0,0,0.8,5.92,0.8)"
         style="fill:#000000;fill-opacity:1;fill-rule:evenodd;stroke:#000000;stroke-width:1pt;stroke-opacity:1"
         d="m -2.5,-1 c 0,2.76 -2.24,5 -5,5 -2.76,0 -5,-2.24 -5,-5 0,-2.76 2.24,-5 5,-5 2.76,0 5,2.24 5,5 z"
         id="path6171" />
    </marker>
    <linearGradient
       id="linearGradient6085"
       osb:paint="solid">
      <stop
         style="stop-color:#000000;stop-opacity:1;"
         offset="0"
         id="stop6087" />
    </linearGradient>
    <marker
       inkscape:isstock="true"
       style="overflow:visible"
       id="marker5798"
       refX="0"
       refY="0"
       orient="auto"
       inkscape:stockid="Arrow1Lend">
      <path
         transform="matrix(-0.8,0,0,-0.8,-10,0)"
         style="fill:#000000;fill-opacity:1;fill-rule:evenodd;stroke:#000000;stroke-width:1pt;stroke-opacity:1"
         d="M 0,0 5,-5 -12.5,0 5,5 0,0 Z"
         id="path5800"
         inkscape:connector-curvature="0" />
    </marker>
    <marker
       inkscape:isstock="true"
       style="overflow:visible"
       id="marker5710"
       refX="0"
       refY="0"
       orient="auto"
       inkscape:stockid="DotL">
      <path
         transform="matrix(0.8,0,0,0.8,5.92,0.8)"
         style="fill:#000000;fill-opacity:1;fill-rule:evenodd;stroke:#000000;stroke-width:1pt;stroke-opacity:1"
         d="m -2.5,-1 c 0,2.76 -2.24,5 -5,5 -2.76,0 -5,-2.24 -5,-5 0,-2.76 2.24,-5 5,-5 2.76,0 5,2.24 5,5 z"
         id="path5712"
         inkscape:connector-curvature="0" />
    </marker>
    <marker
       inkscape:stockid="Arrow1Lend"
       orient="auto"
       refY="0"
       refX="0"
       id="marker5530"
       style="overflow:visible"
       inkscape:isstock="true">
      <path
         inkscape:connector-curvature="0"
         id="path5532"
         d="M 0,0 5,-5 -12.5,0 5,5 0,0 Z"
         style="fill:#000000;fill-opacity:1;fill-rule:evenodd;stroke:#000000;stroke-width:1pt;stroke-opacity:1"
         transform="matrix(-0.8,0,0,-0.8,-10,0)" />
    </marker>
    <marker
       inkscape:stockid="DotL"
       orient="auto"
       refY="0"
       refX="0"
       id="marker5454"
       style="overflow:visible"
       inkscape:isstock="true">
      <path
         id="path5456"
         d="m -2.5,-1 c 0,2.76 -2.24,5 -5,5 -2.76,0 -5,-2.24 -5,-5 0,-2.76 2.24,-5 5,-5 2.76,0 5,2.24 5,5 z"
         style="fill:#000000;fill-opacity:1;fill-rule:evenodd;stroke:#000000;stroke-width:1pt;stroke-opacity:1"
         transform="matrix(0.8,0,0,0.8,5.92,0.8)"
         inkscape:connector-curvature="0" />
    </marker>
    <marker
       inkscape:stockid="Arrow1Lend"
       orient="auto"
       refY="0"
       refX="0"
       id="marker5070"
       style="overflow:visible"
       inkscape:isstock="true"
       inkscape:collect="always">
      <path
         inkscape:connector-curvature="0"
         id="path5072"
         d="M 0,0 5,-5 -12.5,0 5,5 0,0 Z"
         style="fill:#000000;fill-opacity:1;fill-rule:evenodd;stroke:#000000;stroke-width:1pt;stroke-opacity:1"
         transform="matrix(-0.8,0,0,-0.8,-10,0)" />
    </marker>
    <marker
       inkscape:stockid="DotL"
       orient="auto"
       refY="0"
       refX="0"
       id="marker5006"
       style="overflow:visible"
       inkscape:isstock="true"
       inkscape:collect="always">
      <path
         id="path5008"
         d="m -2.5,-1 c 0,2.76 -2.24,5 -5,5 -2.76,0 -5,-2.24 -5,-5 0,-2.76 2.24,-5 5,-5 2.76,0 5,2.24 5,5 z"
         style="fill:#000000;fill-opacity:1;fill-rule:evenodd;stroke:#000000;stroke-width:1pt;stroke-opacity:1"
         transform="matrix(0.8,0,0,0.8,5.92,0.8)"
         inkscape:connector-curvature="0" />
    </marker>
    <marker
       inkscape:stockid="DiamondM"
       orient="auto"
       refY="0"
       refX="0"
       id="DiamondM"
       style="overflow:visible"
       inkscape:isstock="true">
      <path
         id="path4594"
         d="M 0,-7.0710768 -7.0710894,0 0,7.0710589 7.0710462,0 0,-7.0710768 Z"
         style="fill:#000000;fill-opacity:1;fill-rule:evenodd;stroke:#000000;stroke-width:1pt;stroke-opacity:1"
         transform="scale(0.4,0.4)"
         inkscape:connector-curvature="0" />
    </marker>
    <marker
       inkscape:stockid="DotL"
       orient="auto"
       refY="0"
       refX="0"
       id="DotL"
       style="overflow:visible"
       inkscape:isstock="true"
       inkscape:collect="always">
      <path
         id="path4573"
         d="m -2.5,-1 c 0,2.76 -2.24,5 -5,5 -2.76,0 -5,-2.24 -5,-5 0,-2.76 2.24,-5 5,-5 2.76,0 5,2.24 5,5 z"
         style="fill:#000000;fill-opacity:1;fill-rule:evenodd;stroke:#000000;stroke-width:1pt;stroke-opacity:1"
         transform="matrix(0.8,0,0,0.8,5.92,0.8)"
         inkscape:connector-curvature="0" />
    </marker>
    <marker
       inkscape:stockid="Arrow1Lend"
       orient="auto"
       refY="0"
       refX="0"
       id="marker5142"
       style="overflow:visible"
       inkscape:isstock="true">
      <path
         id="path5144"
         d="M 0,0 5,-5 -12.5,0 5,5 0,0 Z"
         style="fill:#000000;fill-opacity:1;fill-rule:evenodd;stroke:#000000;stroke-width:1pt;stroke-opacity:1"
         transform="matrix(-0.8,0,0,-0.8,-10,0)"
         inkscape:connector-curvature="0" />
    </marker>
    <linearGradient
       id="linearGradient6474"
       osb:paint="gradient">
      <stop
         style="stop-color:#000000;stop-opacity:1;"
         offset="0"
         id="stop6476" />
      <stop
         style="stop-color:#000000;stop-opacity:0;"
         offset="1"
         id="stop6478" />
    </linearGradient>
    <linearGradient
       inkscape:collect="always"
       id="linearGradient6466">
      <stop
         style="stop-color:#0c0a0c;stop-opacity:1;"
         offset="0"
         id="stop6468" />
      <stop
         style="stop-color:#0c0a0c;stop-opacity:0;"
         offset="1"
         id="stop6470" />
    </linearGradient>
    <linearGradient
       id="linearGradient6322"
       osb:paint="solid">
      <stop
         style="stop-color:#000000;stop-opacity:1;"
         offset="0"
         id="stop6324" />
    </linearGradient>
    <defs
       id="defs1">
      <clipPath
         id="clipPath1"
         clipPathUnits="userSpaceOnUse">
        <path
           id="path9"
           d="M 0,0 414,0 414,178 0,178 0,0 Z"
           inkscape:connector-curvature="0" />
      </clipPath>
      <clipPath
         id="clipPath2"
         clipPathUnits="userSpaceOnUse">
        <path
           id="path12"
           d="m -543,-360 414,0 0,178 -414,0 0,-178 z"
           inkscape:connector-curvature="0" />
      </clipPath>
    </defs>
    <clipPath
       id="clipPath2-3"
       clipPathUnits="userSpaceOnUse">
      <path
         inkscape:connector-curvature="0"
         id="path12-3"
         d="m -543,-360 414,0 0,178 -414,0 0,-178 z" />
    </clipPath>
    <clipPath
       id="clipPath3826"
       clipPathUnits="userSpaceOnUse">
      <path
         inkscape:connector-curvature="0"
         id="path3828"
         d="m -543,-360 414,0 0,178 -414,0 0,-178 z" />
    </clipPath>
    <clipPath
       id="clipPath2-4"
       clipPathUnits="userSpaceOnUse">
      <path
         inkscape:connector-curvature="0"
         id="path12-7"
         d="m -543,-360 414,0 0,178 -414,0 0,-178 z" />
    </clipPath>
    <linearGradient
       inkscape:collect="always"
       xlink:href="#linearGradient6466"
       id="linearGradient6472"
       x1="12.585248"
       y1="112.61991"
       x2="27.75094"
       y2="112.61991"
       gradientUnits="userSpaceOnUse" />
    <linearGradient
       inkscape:collect="always"
       xlink:href="#linearGradient6466"
       id="linearGradient6496"
       gradientUnits="userSpaceOnUse"
       x1="12.585248"
       y1="112.61991"
       x2="27.75094"
       y2="112.61991" />
    <linearGradient
       inkscape:collect="always"
       xlink:href="#linearGradient6466"
       id="linearGradient6498"
       gradientUnits="userSpaceOnUse"
       x1="12.585248"
       y1="112.61991"
       x2="27.75094"
       y2="112.61991" />
    <clipPath
       id="clipPath2-38"
       clipPathUnits="userSpaceOnUse">
      <path
         inkscape:connector-curvature="0"
         id="path12-6"
         d="m -543,-360 414,0 0,178 -414,0 0,-178 z" />
    </clipPath>
    <clipPath
       id="clipPath6727"
       clipPathUnits="userSpaceOnUse">
      <path
         inkscape:connector-curvature="0"
         id="path6729"
         d="m -543,-360 414,0 0,178 -414,0 0,-178 z" />
    </clipPath>
    <clipPath
       id="clipPath2-2"
       clipPathUnits="userSpaceOnUse">
      <path
         inkscape:connector-curvature="0"
         id="path12-0"
         d="m -543,-360 414,0 0,178 -414,0 0,-178 z" />
    </clipPath>
    <clipPath
       id="clipPath2-8"
       clipPathUnits="userSpaceOnUse">
      <path
         inkscape:connector-curvature="0"
         id="path12-62"
         d="m -543,-360 414,0 0,178 -414,0 0,-178 z" />
    </clipPath>
    <clipPath
       id="clipPath6789"
       clipPathUnits="userSpaceOnUse">
      <path
         inkscape:connector-curvature="0"
         id="path6791"
         d="m -543,-360 414,0 0,178 -414,0 0,-178 z" />
    </clipPath>
    <clipPath
       id="clipPath2-5"
       clipPathUnits="userSpaceOnUse">
      <path
         inkscape:connector-curvature="0"
         id="path12-9"
         d="m -543,-360 414,0 0,178 -414,0 0,-178 z" />
    </clipPath>
    <clipPath
       id="clipPath2-4-9"
       clipPathUnits="userSpaceOnUse">
      <path
         inkscape:connector-curvature="0"
         id="path12-7-7"
         d="m -543,-360 414,0 0,178 -414,0 0,-178 z" />
    </clipPath>
    <clipPath
       id="clipPath2-3-7"
       clipPathUnits="userSpaceOnUse">
      <path
         inkscape:connector-curvature="0"
         id="path12-3-5"
         d="m -543,-360 414,0 0,178 -414,0 0,-178 z" />
    </clipPath>
    <clipPath
       id="clipPath3075"
       clipPathUnits="userSpaceOnUse">
      <path
         inkscape:connector-curvature="0"
         id="path3077"
         d="m -543,-360 414,0 0,178 -414,0 0,-178 z" />
    </clipPath>
    <clipPath
       id="clipPath2-44"
       clipPathUnits="userSpaceOnUse">
      <path
         id="path12-65"
         d="m -543,-360 414,0 0,178 -414,0 0,-178 z"
         inkscape:connector-curvature="0" />
    </clipPath>
    <clipPath
       id="clipPath3081"
       clipPathUnits="userSpaceOnUse">
      <path
         id="path3083"
         d="m -543,-360 414,0 0,178 -414,0 0,-178 z"
         inkscape:connector-curvature="0" />
    </clipPath>
    <clipPath
       id="clipPath3085"
       clipPathUnits="userSpaceOnUse">
      <path
         id="path3087"
         d="m -543,-360 414,0 0,178 -414,0 0,-178 z"
         inkscape:connector-curvature="0" />
    </clipPath>
    <clipPath
       id="clipPath3089"
       clipPathUnits="userSpaceOnUse">
      <path
         id="path3091"
         d="m -543,-360 414,0 0,178 -414,0 0,-178 z"
         inkscape:connector-curvature="0" />
    </clipPath>
    <clipPath
       id="clipPath3093"
       clipPathUnits="userSpaceOnUse">
      <path
         id="path3095"
         d="m -543,-360 414,0 0,178 -414,0 0,-178 z"
         inkscape:connector-curvature="0" />
    </clipPath>
    <clipPath
       id="clipPath3097"
       clipPathUnits="userSpaceOnUse">
      <path
         id="path3099"
         d="m -543,-360 414,0 0,178 -414,0 0,-178 z"
         inkscape:connector-curvature="0" />
    </clipPath>
    <clipPath
       id="clipPath3101"
       clipPathUnits="userSpaceOnUse">
      <path
         id="path3103"
         d="m -543,-360 414,0 0,178 -414,0 0,-178 z"
         inkscape:connector-curvature="0" />
    </clipPath>
    <clipPath
       id="clipPath3105"
       clipPathUnits="userSpaceOnUse">
      <path
         id="path3107"
         d="m -543,-360 414,0 0,178 -414,0 0,-178 z"
         inkscape:connector-curvature="0" />
    </clipPath>
    <clipPath
       id="clipPath3109"
       clipPathUnits="userSpaceOnUse">
      <path
         id="path3111"
         d="m -543,-360 414,0 0,178 -414,0 0,-178 z"
         inkscape:connector-curvature="0" />
    </clipPath>
    <clipPath
       id="clipPath3113"
       clipPathUnits="userSpaceOnUse">
      <path
         id="path3115"
         d="m -543,-360 414,0 0,178 -414,0 0,-178 z"
         inkscape:connector-curvature="0" />
    </clipPath>
    <clipPath
       id="clipPath3117"
       clipPathUnits="userSpaceOnUse">
      <path
         id="path3119"
         d="m -543,-360 414,0 0,178 -414,0 0,-178 z"
         inkscape:connector-curvature="0" />
    </clipPath>
    <clipPath
       id="clipPath3121"
       clipPathUnits="userSpaceOnUse">
      <path
         id="path3123"
         d="m -543,-360 414,0 0,178 -414,0 0,-178 z"
         inkscape:connector-curvature="0" />
    </clipPath>
    <clipPath
       id="clipPath3125"
       clipPathUnits="userSpaceOnUse">
      <path
         id="path3127"
         d="m -543,-360 414,0 0,178 -414,0 0,-178 z"
         inkscape:connector-curvature="0" />
    </clipPath>
    <clipPath
       id="clipPath3129"
       clipPathUnits="userSpaceOnUse">
      <path
         id="path3131"
         d="m -543,-360 414,0 0,178 -414,0 0,-178 z"
         inkscape:connector-curvature="0" />
    </clipPath>
    <clipPath
       id="clipPath3133"
       clipPathUnits="userSpaceOnUse">
      <path
         id="path3135"
         d="m -543,-360 414,0 0,178 -414,0 0,-178 z"
         inkscape:connector-curvature="0" />
    </clipPath>
    <clipPath
       id="clipPath3137"
       clipPathUnits="userSpaceOnUse">
      <path
         id="path3139"
         d="m -543,-360 414,0 0,178 -414,0 0,-178 z"
         inkscape:connector-curvature="0" />
    </clipPath>
    <clipPath
       id="clipPath3141"
       clipPathUnits="userSpaceOnUse">
      <path
         id="path3143"
         d="m -543,-360 414,0 0,178 -414,0 0,-178 z"
         inkscape:connector-curvature="0" />
    </clipPath>
    <clipPath
       id="clipPath3145"
       clipPathUnits="userSpaceOnUse">
      <path
         id="path3147"
         d="m -543,-360 414,0 0,178 -414,0 0,-178 z"
         inkscape:connector-curvature="0" />
    </clipPath>
    <clipPath
       id="clipPath3149"
       clipPathUnits="userSpaceOnUse">
      <path
         id="path3151"
         d="m -543,-360 414,0 0,178 -414,0 0,-178 z"
         inkscape:connector-curvature="0" />
    </clipPath>
    <clipPath
       id="clipPath3153"
       clipPathUnits="userSpaceOnUse">
      <path
         id="path3155"
         d="m -543,-360 414,0 0,178 -414,0 0,-178 z"
         inkscape:connector-curvature="0" />
    </clipPath>
    <clipPath
       id="clipPath3157"
       clipPathUnits="userSpaceOnUse">
      <path
         id="path3159"
         d="m -543,-360 414,0 0,178 -414,0 0,-178 z"
         inkscape:connector-curvature="0" />
    </clipPath>
    <clipPath
       id="clipPath3161"
       clipPathUnits="userSpaceOnUse">
      <path
         id="path3163"
         d="m -543,-360 414,0 0,178 -414,0 0,-178 z"
         inkscape:connector-curvature="0" />
    </clipPath>
    <clipPath
       id="clipPath2-4-93"
       clipPathUnits="userSpaceOnUse">
      <path
         inkscape:connector-curvature="0"
         id="path12-7-3"
         d="m -543,-360 414,0 0,178 -414,0 0,-178 z" />
    </clipPath>
    <clipPath
       id="clipPath2-3-8"
       clipPathUnits="userSpaceOnUse">
      <path
         inkscape:connector-curvature="0"
         id="path12-3-0"
         d="m -543,-360 414,0 0,178 -414,0 0,-178 z" />
    </clipPath>
    <clipPath
       id="clipPath3221"
       clipPathUnits="userSpaceOnUse">
      <path
         inkscape:connector-curvature="0"
         id="path3223"
         d="m -543,-360 414,0 0,178 -414,0 0,-178 z" />
    </clipPath>
    <clipPath
       id="clipPath2-56"
       clipPathUnits="userSpaceOnUse">
      <path
         id="path12-64"
         d="m -543,-360 414,0 0,178 -414,0 0,-178 z"
         inkscape:connector-curvature="0" />
    </clipPath>
    <clipPath
       id="clipPath3227"
       clipPathUnits="userSpaceOnUse">
      <path
         id="path3229"
         d="m -543,-360 414,0 0,178 -414,0 0,-178 z"
         inkscape:connector-curvature="0" />
    </clipPath>
    <clipPath
       id="clipPath3231"
       clipPathUnits="userSpaceOnUse">
      <path
         id="path3233"
         d="m -543,-360 414,0 0,178 -414,0 0,-178 z"
         inkscape:connector-curvature="0" />
    </clipPath>
    <clipPath
       id="clipPath3235"
       clipPathUnits="userSpaceOnUse">
      <path
         id="path3237"
         d="m -543,-360 414,0 0,178 -414,0 0,-178 z"
         inkscape:connector-curvature="0" />
    </clipPath>
    <clipPath
       id="clipPath3239"
       clipPathUnits="userSpaceOnUse">
      <path
         id="path3241"
         d="m -543,-360 414,0 0,178 -414,0 0,-178 z"
         inkscape:connector-curvature="0" />
    </clipPath>
    <clipPath
       id="clipPath3243"
       clipPathUnits="userSpaceOnUse">
      <path
         id="path3245"
         d="m -543,-360 414,0 0,178 -414,0 0,-178 z"
         inkscape:connector-curvature="0" />
    </clipPath>
    <clipPath
       id="clipPath3247"
       clipPathUnits="userSpaceOnUse">
      <path
         id="path3249"
         d="m -543,-360 414,0 0,178 -414,0 0,-178 z"
         inkscape:connector-curvature="0" />
    </clipPath>
    <clipPath
       id="clipPath3251"
       clipPathUnits="userSpaceOnUse">
      <path
         id="path3253"
         d="m -543,-360 414,0 0,178 -414,0 0,-178 z"
         inkscape:connector-curvature="0" />
    </clipPath>
    <clipPath
       id="clipPath3255"
       clipPathUnits="userSpaceOnUse">
      <path
         id="path3257"
         d="m -543,-360 414,0 0,178 -414,0 0,-178 z"
         inkscape:connector-curvature="0" />
    </clipPath>
    <clipPath
       id="clipPath3259"
       clipPathUnits="userSpaceOnUse">
      <path
         id="path3261"
         d="m -543,-360 414,0 0,178 -414,0 0,-178 z"
         inkscape:connector-curvature="0" />
    </clipPath>
    <clipPath
       id="clipPath3263"
       clipPathUnits="userSpaceOnUse">
      <path
         id="path3265"
         d="m -543,-360 414,0 0,178 -414,0 0,-178 z"
         inkscape:connector-curvature="0" />
    </clipPath>
    <clipPath
       id="clipPath3267"
       clipPathUnits="userSpaceOnUse">
      <path
         id="path3269"
         d="m -543,-360 414,0 0,178 -414,0 0,-178 z"
         inkscape:connector-curvature="0" />
    </clipPath>
    <clipPath
       id="clipPath3271"
       clipPathUnits="userSpaceOnUse">
      <path
         id="path3273"
         d="m -543,-360 414,0 0,178 -414,0 0,-178 z"
         inkscape:connector-curvature="0" />
    </clipPath>
    <clipPath
       id="clipPath3275"
       clipPathUnits="userSpaceOnUse">
      <path
         id="path3277"
         d="m -543,-360 414,0 0,178 -414,0 0,-178 z"
         inkscape:connector-curvature="0" />
    </clipPath>
    <clipPath
       id="clipPath3279"
       clipPathUnits="userSpaceOnUse">
      <path
         id="path3281"
         d="m -543,-360 414,0 0,178 -414,0 0,-178 z"
         inkscape:connector-curvature="0" />
    </clipPath>
    <clipPath
       id="clipPath3283"
       clipPathUnits="userSpaceOnUse">
      <path
         id="path3285"
         d="m -543,-360 414,0 0,178 -414,0 0,-178 z"
         inkscape:connector-curvature="0" />
    </clipPath>
    <clipPath
       id="clipPath3287"
       clipPathUnits="userSpaceOnUse">
      <path
         id="path3289"
         d="m -543,-360 414,0 0,178 -414,0 0,-178 z"
         inkscape:connector-curvature="0" />
    </clipPath>
    <clipPath
       id="clipPath3291"
       clipPathUnits="userSpaceOnUse">
      <path
         id="path3293"
         d="m -543,-360 414,0 0,178 -414,0 0,-178 z"
         inkscape:connector-curvature="0" />
    </clipPath>
    <clipPath
       id="clipPath3295"
       clipPathUnits="userSpaceOnUse">
      <path
         id="path3297"
         d="m -543,-360 414,0 0,178 -414,0 0,-178 z"
         inkscape:connector-curvature="0" />
    </clipPath>
    <clipPath
       id="clipPath3299"
       clipPathUnits="userSpaceOnUse">
      <path
         id="path3301"
         d="m -543,-360 414,0 0,178 -414,0 0,-178 z"
         inkscape:connector-curvature="0" />
    </clipPath>
    <clipPath
       id="clipPath3303"
       clipPathUnits="userSpaceOnUse">
      <path
         id="path3305"
         d="m -543,-360 414,0 0,178 -414,0 0,-178 z"
         inkscape:connector-curvature="0" />
    </clipPath>
    <clipPath
       id="clipPath3307"
       clipPathUnits="userSpaceOnUse">
      <path
         id="path3309"
         d="m -543,-360 414,0 0,178 -414,0 0,-178 z"
         inkscape:connector-curvature="0" />
    </clipPath>
    <clipPath
       id="clipPath2-4-4"
       clipPathUnits="userSpaceOnUse">
      <path
         inkscape:connector-curvature="0"
         id="path12-7-79"
         d="m -543,-360 414,0 0,178 -414,0 0,-178 z" />
    </clipPath>
    <clipPath
       id="clipPath2-3-3"
       clipPathUnits="userSpaceOnUse">
      <path
         inkscape:connector-curvature="0"
         id="path12-3-9"
         d="m -543,-360 414,0 0,178 -414,0 0,-178 z" />
    </clipPath>
    <clipPath
       id="clipPath3393"
       clipPathUnits="userSpaceOnUse">
      <path
         inkscape:connector-curvature="0"
         id="path3395"
         d="m -543,-360 414,0 0,178 -414,0 0,-178 z" />
    </clipPath>
    <clipPath
       id="clipPath2-56-8"
       clipPathUnits="userSpaceOnUse">
      <path
         id="path12-64-8"
         d="m -543,-360 414,0 0,178 -414,0 0,-178 z"
         inkscape:connector-curvature="0" />
    </clipPath>
    <marker
       inkscape:stockid="Arrow1Lend"
       orient="auto"
       refY="0"
       refX="0"
       id="Arrow1Lend-5"
       style="overflow:visible"
       inkscape:isstock="true"
       inkscape:collect="always">
      <path
         id="path4598-5"
         d="M 0,0 5,-5 -12.5,0 5,5 0,0 Z"
         style="fill:#000000;fill-opacity:1;fill-rule:evenodd;stroke:#000000;stroke-width:1pt;stroke-opacity:1"
         transform="matrix(-0.8,0,0,-0.8,-10,0)"
         inkscape:connector-curvature="0" />
    </marker>
  </defs>
  <path
     sodipodi:nodetypes="cssc"
     inkscape:connector-curvature="0"
     d="m 422.90543,45.019539 c -0.42724,-20.67342 -6.76101,-17.41408 21.3295,-37.3843202 19.41085,-13.799661 82.67926,-2.01461 81.28573,32.7285802 -1.05198,26.22791 -64.68408,65.265231 -102.57149,4.4628"
     style="font-style:normal;font-weight:normal;font-size:12px;font-family:Dialog;fill:none;stroke:#828282;stroke-width:4;stroke-linecap:round;stroke-linejoin:miter;stroke-miterlimit:10;stroke-dasharray:12, 12;stroke-dashoffset:17.60000038;stroke-opacity:1"
     id="path21554-5-2" />
  <g
     transform="translate(56.418435,-76.02362)"
     id="g4805">
    <g
       style="font-style:normal;font-weight:normal;font-size:12px;font-family:Dialog;color-interpolation:auto;fill:#000000;fill-opacity:1;stroke:#000000;stroke-width:1;stroke-linecap:square;stroke-linejoin:miter;stroke-miterlimit:10;stroke-dasharray:none;stroke-dashoffset:0;stroke-opacity:1;color-rendering:auto;image-rendering:auto;shape-rendering:auto;text-rendering:auto"
       id="g4807"
       transform="translate(-175.72461,35.890004)">
      <rect
         style="display:inline;fill:#ff823f;fill-opacity:1;stroke:#000000;stroke-width:1.17389715;stroke-linecap:round;stroke-linejoin:round"
         id="rect4809"
         width="38.826103"
         height="27.826103"
         x="142.31155"
         y="64.788506" />
    </g>
    <path
       inkscape:connector-curvature="0"
       id="path4811"
       d="m -14.632565,114.64685 68.85255,-0.11081"
       style="font-style:normal;font-weight:normal;font-size:12px;font-family:Dialog;color-interpolation:auto;fill:none;fill-opacity:1;fill-rule:evenodd;stroke:#000000;stroke-width:1px;stroke-linecap:butt;stroke-linejoin:miter;stroke-miterlimit:10;stroke-dasharray:none;stroke-dashoffset:0;stroke-opacity:1;marker-start:url(#DotL);marker-end:url(#Arrow1Lend-5);color-rendering:auto;image-rendering:auto;shape-rendering:auto;text-rendering:auto"
       sodipodi:nodetypes="cc" />
  </g>
  <g
     transform="translate(160.66999,-76.02362)"
     id="g4813">
    <rect
       style="font-style:normal;font-weight:normal;font-size:medium;font-family:Dialog;display:inline;color-interpolation:auto;fill:#ffcc99;fill-opacity:1;stroke:#000000;stroke-width:1.17389715;stroke-linecap:round;stroke-linejoin:round;stroke-miterlimit:10;stroke-dasharray:none;stroke-dashoffset:0;stroke-opacity:1;color-rendering:auto;image-rendering:auto;shape-rendering:auto;text-rendering:auto"
       id="rect4815"
       width="38.826103"
       height="27.826103"
       x="180.58696"
       y="100.58717" />
    <rect
       y="100.58694"
       x="219.44363"
       height="27.826103"
       width="16.220106"
       id="rect4817"
       style="font-style:normal;font-weight:normal;font-size:medium;font-family:Dialog;display:inline;color-interpolation:auto;fill:#ff823f;fill-opacity:1;stroke:#000000;stroke-width:1.17389715;stroke-linecap:round;stroke-linejoin:round;stroke-miterlimit:10;stroke-dasharray:none;stroke-dashoffset:0;stroke-opacity:1;color-rendering:auto;image-rendering:auto;shape-rendering:auto;text-rendering:auto" />
    <text
       transform="scale(1.0007779,0.9992227)"
       inkscape:export-ydpi="200.11"
       inkscape:export-xdpi="200.11"
       inkscape:export-filename="/home/rudametw/docs/sam/Software Architecture Adaptation and Evolution/images/ThreadComponentStackSplit.png"
       xml:space="preserve"
       style="font-style:normal;font-variant:normal;font-weight:normal;font-stretch:normal;font-size:9.85377216px;line-height:100%;font-family:Arial;-inkscape-font-specification:Arial;text-align:start;writing-mode:lr-tb;text-anchor:start;color-interpolation:auto;fill:#000000;fill-opacity:1;stroke:none;stroke-width:1;stroke-linecap:square;stroke-linejoin:miter;stroke-miterlimit:10;stroke-dasharray:none;stroke-dashoffset:0;stroke-opacity:1;color-rendering:auto;image-rendering:auto;shape-rendering:auto;text-rendering:auto"
       x="189.435"
       y="118.76629"
       id="text4819"
       sodipodi:linespacing="100%"><tspan
         style="font-style:normal;font-variant:normal;font-weight:normal;font-stretch:normal;font-size:22.5px;font-family:courier;-inkscape-font-specification:courier"
         sodipodi:role="line"
         x="189.435"
         y="118.76629"
         id="tspan4821">A<tspan
   id="tspan4823"
   style="font-size:64.99999762%;baseline-shift:sub">1</tspan></tspan><tspan
         style="font-size:27.5px"
         sodipodi:role="line"
         x="189.435"
         y="141.2663"
         id="tspan4825" /></text>
    <rect
       style="font-style:normal;font-weight:normal;font-size:medium;font-family:Dialog;display:inline;color-interpolation:auto;fill:#ff823f;fill-opacity:1;stroke:#000000;stroke-width:1.17389715;stroke-linecap:round;stroke-linejoin:round;stroke-miterlimit:10;stroke-dasharray:none;stroke-dashoffset:0;stroke-opacity:1;color-rendering:auto;image-rendering:auto;shape-rendering:auto;text-rendering:auto"
       id="rect4827"
       width="16.220106"
       height="27.826103"
       x="164.22717"
       y="100.58694" />
    <path
       style="font-style:normal;font-weight:normal;font-size:12px;font-family:Dialog;color-interpolation:auto;fill:none;fill-opacity:1;fill-rule:evenodd;stroke:#000000;stroke-width:1px;stroke-linecap:butt;stroke-linejoin:miter;stroke-miterlimit:10;stroke-dasharray:none;stroke-dashoffset:0;stroke-opacity:1;color-rendering:auto;image-rendering:auto;shape-rendering:auto;text-rendering:auto"
       d="m 235.4583,100.69781 -15.73554,27.4818"
       id="path4829"
       inkscape:connector-curvature="0"
       sodipodi:nodetypes="cc" />
  </g>
  <g
     transform="translate(54.669997,-76.02362)"
     id="g4831">
    <rect
       y="100.58717"
       x="180.58696"
       height="27.826103"
       width="38.826103"
       id="rect4833"
       style="font-style:normal;font-weight:normal;font-size:medium;font-family:Dialog;display:inline;color-interpolation:auto;fill:#ffcc99;fill-opacity:1;stroke:#000000;stroke-width:1.17389715;stroke-linecap:round;stroke-linejoin:round;stroke-miterlimit:10;stroke-dasharray:none;stroke-dashoffset:0;stroke-opacity:1;color-rendering:auto;image-rendering:auto;shape-rendering:auto;text-rendering:auto" />
    <rect
       style="font-style:normal;font-weight:normal;font-size:medium;font-family:Dialog;display:inline;color-interpolation:auto;fill:#ff823f;fill-opacity:1;stroke:#000000;stroke-width:1.17389715;stroke-linecap:round;stroke-linejoin:round;stroke-miterlimit:10;stroke-dasharray:none;stroke-dashoffset:0;stroke-opacity:1;color-rendering:auto;image-rendering:auto;shape-rendering:auto;text-rendering:auto"
       id="rect4835"
       width="16.220106"
       height="27.826103"
       x="219.44363"
       y="100.58694" />
    <path
       inkscape:connector-curvature="0"
       id="path4837"
       d="m 227.96274,114.64685 40.48424,-0.11081"
       style="font-style:normal;font-weight:normal;font-size:12px;font-family:Dialog;color-interpolation:auto;fill:none;fill-opacity:1;fill-rule:evenodd;stroke:#000000;stroke-width:1px;stroke-linecap:butt;stroke-linejoin:miter;stroke-miterlimit:10;stroke-dasharray:none;stroke-dashoffset:0;stroke-opacity:1;marker-start:url(#marker5006);marker-end:url(#marker5070);color-rendering:auto;image-rendering:auto;shape-rendering:auto;text-rendering:auto"
       sodipodi:nodetypes="cc" />
    <text
       sodipodi:linespacing="100%"
       id="text4839"
       y="118.76629"
       x="189.435"
       style="font-style:normal;font-variant:normal;font-weight:normal;font-stretch:normal;font-size:9.85377216px;line-height:100%;font-family:Arial;-inkscape-font-specification:Arial;text-align:start;writing-mode:lr-tb;text-anchor:start;color-interpolation:auto;fill:#000000;fill-opacity:1;stroke:none;stroke-width:1;stroke-linecap:square;stroke-linejoin:miter;stroke-miterlimit:10;stroke-dasharray:none;stroke-dashoffset:0;stroke-opacity:1;color-rendering:auto;image-rendering:auto;shape-rendering:auto;text-rendering:auto"
       xml:space="preserve"
       inkscape:export-filename="/home/rudametw/docs/sam/Software Architecture Adaptation and Evolution/images/ThreadComponentStackSplit.png"
       inkscape:export-xdpi="200.11"
       inkscape:export-ydpi="200.11"
       transform="scale(1.0007779,0.9992227)"><tspan
         id="tspan4841"
         y="118.76629"
         x="189.435"
         sodipodi:role="line"
         style="font-style:normal;font-variant:normal;font-weight:normal;font-stretch:normal;font-size:22.5px;font-family:courier;-inkscape-font-specification:courier">A<tspan
   style="font-size:64.99999762%;baseline-shift:sub"
   id="tspan4843">1</tspan></tspan><tspan
         id="tspan4845"
         y="141.2663"
         x="189.435"
         sodipodi:role="line"
         style="font-size:27.5px" /></text>
    <rect
       y="100.58694"
       x="164.22717"
       height="27.826103"
       width="16.220106"
       id="rect4847"
       style="font-style:normal;font-weight:normal;font-size:medium;font-family:Dialog;display:inline;color-interpolation:auto;fill:#ff823f;fill-opacity:1;stroke:#000000;stroke-width:1.17389715;stroke-linecap:round;stroke-linejoin:round;stroke-miterlimit:10;stroke-dasharray:none;stroke-dashoffset:0;stroke-opacity:1;color-rendering:auto;image-rendering:auto;shape-rendering:auto;text-rendering:auto" />
    <path
       sodipodi:nodetypes="cccc"
       style="font-style:normal;font-weight:normal;font-size:12px;font-family:Dialog;color-interpolation:auto;fill:none;fill-opacity:1;fill-rule:evenodd;stroke:#000000;stroke-width:1px;stroke-linecap:butt;stroke-linejoin:miter;stroke-miterlimit:10;stroke-dasharray:none;stroke-dashoffset:0;stroke-opacity:1;marker-start:url(#marker5006);marker-end:url(#marker5070);color-rendering:auto;image-rendering:auto;shape-rendering:auto;text-rendering:auto"
       d="M 170.07073,115.71693 169.81682,148.71687 64.5451,148.54936 64.33448,129.68675"
       id="path4849"
       inkscape:connector-curvature="0" />
    <path
       inkscape:connector-curvature="0"
       id="path4851"
       d="m 278.51934,114.69825 -0.25391,32.99994 -103.72033,-0.16751 -0.21062,-18.86261"
       style="font-style:normal;font-weight:normal;font-size:12px;font-family:Dialog;color-interpolation:auto;fill:none;fill-opacity:1;fill-rule:evenodd;stroke:#000000;stroke-width:1px;stroke-linecap:butt;stroke-linejoin:miter;stroke-miterlimit:10;stroke-dasharray:none;stroke-dashoffset:0;stroke-opacity:1;marker-start:url(#marker5006);marker-end:url(#marker5070);color-rendering:auto;image-rendering:auto;shape-rendering:auto;text-rendering:auto"
       sodipodi:nodetypes="cccc" />
  </g>
  <g
     transform="translate(-51.330003,-76.02362)"
     id="g4853">
    <rect
       style="font-style:normal;font-weight:normal;font-size:medium;font-family:Dialog;display:inline;color-interpolation:auto;fill:#ffcc99;fill-opacity:1;stroke:#000000;stroke-width:1.17389715;stroke-linecap:round;stroke-linejoin:round;stroke-miterlimit:10;stroke-dasharray:none;stroke-dashoffset:0;stroke-opacity:1;color-rendering:auto;image-rendering:auto;shape-rendering:auto;text-rendering:auto"
       id="rect4855"
       width="38.826103"
       height="27.826103"
       x="180.58696"
       y="100.58717" />
    <rect
       y="100.58694"
       x="219.44363"
       height="27.826103"
       width="16.220106"
       id="rect4857"
       style="font-style:normal;font-weight:normal;font-size:medium;font-family:Dialog;display:inline;color-interpolation:auto;fill:#ff823f;fill-opacity:1;stroke:#000000;stroke-width:1.17389715;stroke-linecap:round;stroke-linejoin:round;stroke-miterlimit:10;stroke-dasharray:none;stroke-dashoffset:0;stroke-opacity:1;color-rendering:auto;image-rendering:auto;shape-rendering:auto;text-rendering:auto" />
    <path
       sodipodi:nodetypes="cc"
       style="font-style:normal;font-weight:normal;font-size:12px;font-family:Dialog;color-interpolation:auto;fill:none;fill-opacity:1;fill-rule:evenodd;stroke:#000000;stroke-width:1px;stroke-linecap:butt;stroke-linejoin:miter;stroke-miterlimit:10;stroke-dasharray:none;stroke-dashoffset:0;stroke-opacity:1;marker-start:url(#marker5006);marker-end:url(#marker5070);color-rendering:auto;image-rendering:auto;shape-rendering:auto;text-rendering:auto"
       d="m 227.96274,114.64685 40.48424,-0.11081"
       id="path4859"
       inkscape:connector-curvature="0" />
    <text
       transform="scale(1.0007779,0.9992227)"
       inkscape:export-ydpi="200.11"
       inkscape:export-xdpi="200.11"
       inkscape:export-filename="/home/rudametw/docs/sam/Software Architecture Adaptation and Evolution/images/ThreadComponentStackSplit.png"
       xml:space="preserve"
       style="font-style:normal;font-variant:normal;font-weight:normal;font-stretch:normal;font-size:9.85377216px;line-height:100%;font-family:Arial;-inkscape-font-specification:Arial;text-align:start;writing-mode:lr-tb;text-anchor:start;color-interpolation:auto;fill:#000000;fill-opacity:1;stroke:none;stroke-width:1;stroke-linecap:square;stroke-linejoin:miter;stroke-miterlimit:10;stroke-dasharray:none;stroke-dashoffset:0;stroke-opacity:1;color-rendering:auto;image-rendering:auto;shape-rendering:auto;text-rendering:auto"
       x="189.435"
       y="118.76629"
       id="text4861"
       sodipodi:linespacing="100%"><tspan
         style="font-style:normal;font-variant:normal;font-weight:normal;font-stretch:normal;font-size:22.5px;font-family:courier;-inkscape-font-specification:courier"
         sodipodi:role="line"
         x="189.435"
         y="118.76629"
         id="tspan4863">A<tspan
   id="tspan4865"
   style="font-size:64.99999762%;baseline-shift:sub">1</tspan></tspan><tspan
         style="font-size:27.5px"
         sodipodi:role="line"
         x="189.435"
         y="141.2663"
         id="tspan4867" /></text>
    <rect
       style="font-style:normal;font-weight:normal;font-size:medium;font-family:Dialog;display:inline;color-interpolation:auto;fill:#ff823f;fill-opacity:1;stroke:#000000;stroke-width:1.17389715;stroke-linecap:round;stroke-linejoin:round;stroke-miterlimit:10;stroke-dasharray:none;stroke-dashoffset:0;stroke-opacity:1;color-rendering:auto;image-rendering:auto;shape-rendering:auto;text-rendering:auto"
       id="rect4869"
       width="16.220106"
       height="27.826103"
       x="164.22717"
       y="100.58694" />
    <path
       style="font-style:normal;font-weight:normal;font-size:12px;font-family:Dialog;color-interpolation:auto;fill:none;fill-opacity:1;fill-rule:evenodd;stroke:#000000;stroke-width:1px;stroke-linecap:butt;stroke-linejoin:miter;stroke-miterlimit:10;stroke-dasharray:none;stroke-dashoffset:0;stroke-opacity:1;color-rendering:auto;image-rendering:auto;shape-rendering:auto;text-rendering:auto"
       d="m 180.45831,100.36268 -15.73555,27.48179"
       id="path4871"
       inkscape:connector-curvature="0"
       sodipodi:nodetypes="cc" />
  </g>
  <text
     transform="scale(1.0007779,0.9992227)"
     inkscape:export-ydpi="200.11"
     inkscape:export-xdpi="200.11"
     inkscape:export-filename="/home/rudametw/docs/sam/Software Architecture Adaptation and Evolution/images/ThreadComponentStackSplit.png"
     xml:space="preserve"
     style="font-style:normal;font-variant:normal;font-weight:normal;font-stretch:normal;font-size:9.85377216px;line-height:100%;font-family:Arial;-inkscape-font-specification:Arial;text-align:start;writing-mode:lr-tb;text-anchor:start;color-interpolation:auto;fill:#000000;fill-opacity:1;stroke:none;stroke-width:1;stroke-linecap:square;stroke-linejoin:miter;stroke-miterlimit:10;stroke-dasharray:none;stroke-dashoffset:0;stroke-opacity:1;color-rendering:auto;image-rendering:auto;shape-rendering:auto;text-rendering:auto"
     x="-0.74707031"
     y="45.02494"
     id="text4873"
     sodipodi:linespacing="100%"><tspan
       style="font-style:normal;font-variant:normal;font-weight:bold;font-stretch:normal;font-size:22.5px;font-family:courier;-inkscape-font-specification:courier"
       sodipodi:role="line"
       x="-0.74707031"
       y="45.02494"
       id="tspan4875">L</tspan><tspan
       style="font-size:27.5px"
       sodipodi:role="line"
       x="-0.74707031"
       y="67.52494"
       id="tspan4877" /></text>
  <g
     id="g4881"
     transform="matrix(-1,0,0,1,452.45844,-76.02362)">
    <g
       transform="translate(-175.72461,35.890004)"
       id="g4883"
       style="font-style:normal;font-weight:normal;font-size:12px;font-family:Dialog;color-interpolation:auto;fill:#000000;fill-opacity:1;stroke:#000000;stroke-width:1;stroke-linecap:square;stroke-linejoin:miter;stroke-miterlimit:10;stroke-dasharray:none;stroke-dashoffset:0;stroke-opacity:1;color-rendering:auto;image-rendering:auto;shape-rendering:auto;text-rendering:auto">
      <rect
         y="64.788506"
         x="142.31155"
         height="27.826103"
         width="38.826103"
         id="rect4885"
         style="display:inline;fill:#cc0000;fill-opacity:1;stroke:#000000;stroke-width:1.17389715;stroke-linecap:round;stroke-linejoin:round" />
    </g>
    <path
       sodipodi:nodetypes="cc"
       style="font-style:normal;font-weight:normal;font-size:12px;font-family:Dialog;color-interpolation:auto;fill:none;fill-opacity:1;fill-rule:evenodd;stroke:#000000;stroke-width:1px;stroke-linecap:butt;stroke-linejoin:miter;stroke-miterlimit:10;stroke-dasharray:none;stroke-dashoffset:0;stroke-opacity:1;marker-start:url(#DotL);marker-end:url(#Arrow1Lend-5);color-rendering:auto;image-rendering:auto;shape-rendering:auto;text-rendering:auto"
       d="m -14.632565,114.64685 68.85255,-0.11081"
       id="path4887"
       inkscape:connector-curvature="0" />
  </g>
  <text
     sodipodi:linespacing="100%"
     id="text4889"
     y="45.02494"
     x="494.86752"
     style="font-style:normal;font-variant:normal;font-weight:normal;font-stretch:normal;font-size:9.85377216px;line-height:100%;font-family:Arial;-inkscape-font-specification:Arial;text-align:start;writing-mode:lr-tb;text-anchor:start;color-interpolation:auto;fill:#000000;fill-opacity:1;stroke:none;stroke-width:1;stroke-linecap:square;stroke-linejoin:miter;stroke-miterlimit:10;stroke-dasharray:none;stroke-dashoffset:0;stroke-opacity:1;color-rendering:auto;image-rendering:auto;shape-rendering:auto;text-rendering:auto"
     xml:space="preserve"
     inkscape:export-filename="/home/rudametw/docs/sam/Software Architecture Adaptation and Evolution/images/ThreadComponentStackSplit.png"
     inkscape:export-xdpi="200.11"
     inkscape:export-ydpi="200.11"
     transform="scale(1.0007779,0.9992227)"><tspan
       id="tspan4891"
       y="45.02494"
       x="494.86752"
       sodipodi:role="line"
       style="font-style:normal;font-variant:normal;font-weight:bold;font-stretch:normal;font-size:22.5px;font-family:courier;-inkscape-font-specification:courier">Q</tspan><tspan
       id="tspan4893"
       y="67.52494"
       x="494.86752"
       sodipodi:role="line"
       style="font-size:27.5px" /></text>
</svg>
